<?xml version="1.0" encoding="utf-8"?>
<!-- Generator: Adobe Illustrator 19.2.1, SVG Export Plug-In . SVG Version: 6.00 Build 0)  -->
<svg version="1.1" id="Layer_1" xmlns="http://www.w3.org/2000/svg" xmlns:xlink="http://www.w3.org/1999/xlink" x="0px" y="0px"
	 viewBox="0 0 31 31" style="enable-background:new 0 0 31 31;" xml:space="preserve">
<style type="text/css">
	.st0{fill:#616161;}
</style>
<g>
	<g>
		<path class="st0" d="M15.5,10.4c0.8,0,1.3-0.5,1.3-1.2c0-0.7-0.5-1.2-1.2-1.2c-0.7,0-1.2,0.5-1.2,1.2
			C14.3,9.8,14.8,10.4,15.5,10.4z"/>
		<path class="st0" d="M16.5,22.3v-9.2c0-0.8-0.7-0.9-0.8-0.9h-0.4c0,0-0.8,0-0.8,0.7v9.6c0,0.2,0.1,0.6,0.6,0.6h0.7
			C16.1,23.1,16.5,23,16.5,22.3z"/>
	</g>
	<path class="st0" d="M15.5,0.5c-8.3,0-15,6.7-15,15c0,8.3,6.7,15,15,15c8.3,0,15-6.7,15-15C30.5,7.2,23.8,0.5,15.5,0.5z M15.5,28
		C8.6,28,3,22.4,3,15.5C3,8.6,8.6,3,15.5,3C22.4,3,28,8.6,28,15.5C28,22.4,22.4,28,15.5,28z"/>
</g>
</svg>
